<svg width="24" height="24" viewBox="0 0 24 24" fill="none" xmlns="http://www.w3.org/2000/svg">
<path d="M12 3L5 6V11C5 15.6 7.8 19.1 12 21C16.2 19.1 19 15.6 19 11V6L12 3Z" stroke="#E6A93B" stroke-width="1.25" stroke-linecap="round" stroke-linejoin="round"/>
<path d="M12 11C13.1046 11 14 10.1046 14 9C14 7.89543 13.1046 7 12 7C10.8954 7 10 7.89543 10 9C10 10.1046 10.8954 11 12 11Z" stroke="#E6A93B" stroke-width="1.25" stroke-linecap="round" stroke-linejoin="round"/>
<path d="M8.5 15C8.5 14.0717 8.86875 13.1815 9.52513 12.5251C10.1815 11.8687 11.0717 11.5 12 11.5C12.9283 11.5 13.8185 11.8687 14.4749 12.5251C15.1313 13.1815 15.5 14.0717 15.5 15" stroke="#E6A93B" stroke-width="1.25" stroke-linecap="round" stroke-linejoin="round"/>
</svg>
