<svg width="441" height="75" viewBox="0 0 441 75" fill="none" xmlns="http://www.w3.org/2000/svg">
<g clip-path="url(#clip0_1_2)">
<path d="M86.178 59L102.05 14.98H111.908L127.78 59H119.348L115.69 48.584H98.268L94.61 59H86.178ZM100.624 41.702H113.334L107.01 23.102L100.624 41.702ZM145.358 59.744C142.093 59.744 139.344 59.2687 137.112 58.318C134.922 57.3673 133.227 56.0447 132.028 54.35C130.83 52.6553 130.148 50.7333 129.982 48.584L138.104 48.212C138.394 49.948 139.117 51.2913 140.274 52.242C141.432 53.1927 143.147 53.668 145.42 53.668C147.28 53.668 148.727 53.3787 149.76 52.8C150.835 52.18 151.372 51.2293 151.372 49.948C151.372 49.204 151.186 48.584 150.814 48.088C150.442 47.592 149.74 47.158 148.706 46.786C147.673 46.414 146.144 46.042 144.118 45.67C140.729 45.0913 138.063 44.3887 136.12 43.562C134.178 42.694 132.793 41.6193 131.966 40.338C131.181 39.0567 130.788 37.4653 130.788 35.564C130.788 32.464 131.966 29.9633 134.322 28.062C136.72 26.1193 140.212 25.148 144.8 25.148C147.776 25.148 150.277 25.644 152.302 26.636C154.328 27.5867 155.898 28.9093 157.014 30.604C158.172 32.2573 158.895 34.1587 159.184 36.308L151.186 36.68C150.98 35.564 150.608 34.5927 150.07 33.766C149.533 32.9393 148.81 32.3193 147.9 31.906C146.991 31.4513 145.916 31.224 144.676 31.224C142.816 31.224 141.411 31.596 140.46 32.34C139.51 33.084 139.034 34.076 139.034 35.316C139.034 36.184 139.241 36.9073 139.654 37.486C140.109 38.0647 140.832 38.54 141.824 38.912C142.816 39.2427 144.139 39.5527 145.792 39.842C149.264 40.3793 151.992 41.082 153.976 41.95C156.002 42.7767 157.428 43.8513 158.254 45.174C159.122 46.4553 159.556 48.0053 159.556 49.824C159.556 51.932 158.957 53.73 157.758 55.218C156.601 56.706 154.948 57.8427 152.798 58.628C150.69 59.372 148.21 59.744 145.358 59.744ZM179.204 59.744C175.939 59.744 173.19 59.2687 170.958 58.318C168.767 57.3673 167.073 56.0447 165.874 54.35C164.675 52.6553 163.993 50.7333 163.828 48.584L171.95 48.212C172.239 49.948 172.963 51.2913 174.12 52.242C175.277 53.1927 176.993 53.668 179.266 53.668C181.126 53.668 182.573 53.3787 183.606 52.8C184.681 52.18 185.218 51.2293 185.218 49.948C185.218 49.204 185.032 48.584 184.66 48.088C184.288 47.592 183.585 47.158 182.552 46.786C181.519 46.414 179.989 46.042 177.964 45.67C174.575 45.0913 171.909 44.3887 169.966 43.562C168.023 42.694 166.639 41.6193 165.812 40.338C165.027 39.0567 164.634 37.4653 164.634 35.564C164.634 32.464 165.812 29.9633 168.168 28.062C170.565 26.1193 174.058 25.148 178.646 25.148C181.622 25.148 184.123 25.644 186.148 26.636C188.173 27.5867 189.744 28.9093 190.86 30.604C192.017 32.2573 192.741 34.1587 193.03 36.308L185.032 36.68C184.825 35.564 184.453 34.5927 183.916 33.766C183.379 32.9393 182.655 32.3193 181.746 31.906C180.837 31.4513 179.762 31.224 178.522 31.224C176.662 31.224 175.257 31.596 174.306 32.34C173.355 33.084 172.88 34.076 172.88 35.316C172.88 36.184 173.087 36.9073 173.5 37.486C173.955 38.0647 174.678 38.54 175.67 38.912C176.662 39.2427 177.985 39.5527 179.638 39.842C183.11 40.3793 185.838 41.082 187.822 41.95C189.847 42.7767 191.273 43.8513 192.1 45.174C192.968 46.4553 193.402 48.0053 193.402 49.824C193.402 51.932 192.803 53.73 191.604 55.218C190.447 56.706 188.793 57.8427 186.644 58.628C184.536 59.372 182.056 59.744 179.204 59.744ZM210.508 59.744C207.16 59.744 204.494 58.6487 202.51 56.458C200.567 54.226 199.596 51.1467 199.596 47.22V25.892H207.532V45.236C207.532 48.0053 207.987 50.0513 208.896 51.374C209.847 52.6553 211.273 53.296 213.174 53.296C215.323 53.296 216.977 52.5933 218.134 51.188C219.333 49.7413 219.932 47.654 219.932 44.926V25.892H227.868V59H220.614L220.428 49.886L221.42 50.196C220.924 53.3373 219.746 55.714 217.886 57.326C216.026 58.938 213.567 59.744 210.508 59.744ZM236.59 59V25.892H244.03L244.34 35.068L243.658 34.944C244.154 31.7613 245.084 29.4673 246.448 28.062C247.853 26.6153 249.755 25.892 252.152 25.892H255.19V32.712H252.09C250.395 32.712 248.99 32.96 247.874 33.456C246.758 33.952 245.911 34.7373 245.332 35.812C244.795 36.8453 244.526 38.2093 244.526 39.904V59H236.59ZM273.799 59.744C270.492 59.744 267.619 59.0413 265.181 57.636C262.742 56.1893 260.861 54.164 259.539 51.56C258.216 48.956 257.555 45.918 257.555 42.446C257.555 38.974 258.216 35.9567 259.539 33.394C260.861 30.79 262.721 28.7647 265.119 27.318C267.557 25.8713 270.389 25.148 273.613 25.148C276.754 25.148 279.503 25.8507 281.859 27.256C284.256 28.6613 286.095 30.6867 287.377 33.332C288.658 35.9773 289.299 39.16 289.299 42.88V44.678H265.801C265.966 47.5713 266.751 49.762 268.157 51.25C269.603 52.6967 271.505 53.42 273.861 53.42C275.638 53.42 277.105 53.0273 278.263 52.242C279.461 51.4153 280.288 50.2787 280.743 48.832L288.865 49.328C287.955 52.552 286.157 55.094 283.471 56.954C280.825 58.814 277.601 59.744 273.799 59.744ZM265.801 39.346H281.115C280.949 36.6593 280.185 34.6753 278.821 33.394C277.457 32.0713 275.721 31.41 273.613 31.41C271.505 31.41 269.748 32.092 268.343 33.456C266.979 34.82 266.131 36.7833 265.801 39.346ZM295.502 68.3V25.892H303.128L303.314 32.96L302.508 32.588C303.335 30.1493 304.678 28.31 306.538 27.07C308.439 25.7887 310.651 25.148 313.172 25.148C316.313 25.148 318.917 25.9333 320.984 27.504C323.092 29.0747 324.663 31.162 325.696 33.766C326.729 36.37 327.246 39.2633 327.246 42.446C327.246 45.6287 326.709 48.522 325.634 51.126C324.601 53.73 323.03 55.8173 320.922 57.388C318.855 58.9587 316.251 59.744 313.11 59.744C311.457 59.744 309.907 59.4547 308.46 58.876C307.055 58.2973 305.835 57.4707 304.802 56.396C303.81 55.3213 303.107 54.0607 302.694 52.614L303.438 51.994V68.3H295.502ZM311.25 53.296C313.647 53.296 315.528 52.3453 316.892 50.444C318.297 48.5013 319 45.8353 319 42.446C319 39.0567 318.297 36.4113 316.892 34.51C315.528 32.5673 313.647 31.596 311.25 31.596C309.638 31.596 308.253 32.0093 307.096 32.836C305.939 33.6213 305.029 34.82 304.368 36.432C303.748 38.044 303.438 40.0487 303.438 42.446C303.438 44.8433 303.748 46.848 304.368 48.46C304.988 50.072 305.877 51.2913 307.034 52.118C308.233 52.9033 309.638 53.296 311.25 53.296ZM343.499 59.744C340.027 59.744 337.237 58.9587 335.129 57.388C333.021 55.776 331.967 53.544 331.967 50.692C331.967 47.84 332.855 45.608 334.633 43.996C336.41 42.384 339.117 41.2267 342.755 40.524L353.729 38.354C353.729 35.998 353.191 34.2413 352.117 33.084C351.042 31.8853 349.451 31.286 347.343 31.286C345.441 31.286 343.933 31.7407 342.817 32.65C341.742 33.518 340.998 34.7787 340.585 36.432L332.525 36.06C333.186 32.5467 334.798 29.86 337.361 28C339.923 26.0987 343.251 25.148 347.343 25.148C352.055 25.148 355.609 26.3467 358.007 28.744C360.445 31.1 361.665 34.4893 361.665 38.912V50.94C361.665 51.808 361.809 52.4073 362.099 52.738C362.429 53.0687 362.905 53.234 363.525 53.234H364.579V59C364.331 59.0827 363.917 59.1447 363.339 59.186C362.801 59.2273 362.243 59.248 361.665 59.248C360.301 59.248 359.081 59.0413 358.007 58.628C356.932 58.1733 356.105 57.4087 355.527 56.334C354.948 55.218 354.659 53.7093 354.659 51.808L355.341 52.304C355.01 53.7507 354.287 55.0527 353.171 56.21C352.096 57.326 350.732 58.194 349.079 58.814C347.425 59.434 345.565 59.744 343.499 59.744ZM345.111 53.978C346.888 53.978 348.417 53.6267 349.699 52.924C350.98 52.2213 351.972 51.25 352.675 50.01C353.377 48.77 353.729 47.3027 353.729 45.608V43.748L345.173 45.484C343.395 45.856 342.114 46.414 341.329 47.158C340.585 47.8607 340.213 48.7907 340.213 49.948C340.213 51.2293 340.626 52.2213 341.453 52.924C342.321 53.6267 343.54 53.978 345.111 53.978ZM383.505 69.044C380.612 69.044 378.132 68.6513 376.065 67.866C373.999 67.0807 372.325 65.9647 371.043 64.518C369.803 63.1127 368.935 61.48 368.439 59.62L376.623 59.062C377.037 60.302 377.739 61.2733 378.731 61.976C379.765 62.6787 381.356 63.03 383.505 63.03C385.944 63.03 387.825 62.472 389.147 61.356C390.47 60.2813 391.131 58.5867 391.131 56.272V52.056C390.346 53.668 389.085 54.97 387.349 55.962C385.613 56.9127 383.671 57.388 381.521 57.388C378.793 57.388 376.355 56.7267 374.205 55.404C372.097 54.04 370.444 52.1593 369.245 49.762C368.047 47.3233 367.447 44.5127 367.447 41.33C367.447 38.1473 368.026 35.3573 369.183 32.96C370.382 30.5213 372.035 28.62 374.143 27.256C376.251 25.8507 378.669 25.148 381.397 25.148C383.795 25.148 385.861 25.6853 387.597 26.76C389.333 27.8347 390.594 29.2607 391.379 31.038V25.892H399.129V56.086C399.129 58.8967 398.468 61.2733 397.145 63.216C395.864 65.1587 394.045 66.6053 391.689 67.556C389.375 68.548 386.647 69.044 383.505 69.044ZM383.381 51.188C385.737 51.188 387.618 50.32 389.023 48.584C390.429 46.8067 391.152 44.368 391.193 41.268C391.235 39.2013 390.925 37.4447 390.263 35.998C389.643 34.51 388.734 33.3733 387.535 32.588C386.378 31.7613 384.993 31.348 383.381 31.348C380.943 31.348 379.041 32.2573 377.677 34.076C376.355 35.8533 375.693 38.2507 375.693 41.268C375.693 44.2853 376.375 46.7033 377.739 48.522C379.145 50.2993 381.025 51.188 383.381 51.188ZM421.533 59.744C418.226 59.744 415.354 59.0413 412.915 57.636C410.476 56.1893 408.596 54.164 407.273 51.56C405.95 48.956 405.289 45.918 405.289 42.446C405.289 38.974 405.95 35.9567 407.273 33.394C408.596 30.79 410.456 28.7647 412.853 27.318C415.292 25.8713 418.123 25.148 421.347 25.148C424.488 25.148 427.237 25.8507 429.593 27.256C431.99 28.6613 433.83 30.6867 435.111 33.332C436.392 35.9773 437.033 39.16 437.033 42.88V44.678H413.535C413.7 47.5713 414.486 49.762 415.891 51.25C417.338 52.6967 419.239 53.42 421.595 53.42C423.372 53.42 424.84 53.0273 425.997 52.242C427.196 51.4153 428.022 50.2787 428.477 48.832L436.599 49.328C435.69 52.552 433.892 55.094 431.205 56.954C428.56 58.814 425.336 59.744 421.533 59.744ZM413.535 39.346H428.849C428.684 36.6593 427.919 34.6753 426.555 33.394C425.191 32.0713 423.455 31.41 421.347 31.41C419.239 31.41 417.482 32.092 416.077 33.456C414.713 34.82 413.866 36.7833 413.535 39.346Z" fill="#27272A"/>
<path d="M36 0L52 9L36 18L20 9L36 0ZM16 12L32 21L16 30L0 21L16 12ZM56 12L72 21L56 30L40 21L56 12ZM36 24L56 35L36 46L16 35L36 24ZM0 39L8 35L36 51L64 35L72 39L36 60L0 39ZM0 53L8 49L36 65L64 49L72 53L36 74L0 53Z" fill="#18181B"/>
</g>
<defs>
<clipPath id="clip0_1_2">
<rect width="441" height="75" fill="white"/>
</clipPath>
</defs>
</svg>
