<svg width="441" height="75" viewBox="0 0 441 75" fill="none" xmlns="http://www.w3.org/2000/svg">
<g clip-path="url(#clip0_1_2)">
<path d="M86.178 59L102.05 14.98H111.908L127.78 59H119.348L115.69 48.584H98.268L94.61 59H86.178ZM100.624 41.702H113.334L107.01 23.102L100.624 41.702ZM145.358 59.744C142.093 59.744 139.344 59.2687 137.112 58.318C134.922 57.3673 133.227 56.0447 132.028 54.35C130.83 52.6553 130.148 50.7333 129.982 48.584L138.104 48.212C138.394 49.948 139.117 51.2913 140.274 52.242C141.432 53.1927 143.147 53.668 145.42 53.668C147.28 53.668 148.727 53.3787 149.76 52.8C150.835 52.18 151.372 51.2293 151.372 49.948C151.372 49.204 151.186 48.584 150.814 48.088C150.442 47.592 149.74 47.158 148.706 46.786C147.673 46.414 146.144 46.042 144.118 45.67C140.729 45.0913 138.063 44.3887 136.12 43.562C134.178 42.694 132.793 41.6193 131.966 40.338C131.181 39.0567 130.788 37.4653 130.788 35.564C130.788 32.464 131.966 29.9633 134.322 28.062C136.72 26.1193 140.212 25.148 144.8 25.148C147.776 25.148 150.277 25.644 152.302 26.636C154.328 27.5867 155.898 28.9093 157.014 30.604C158.172 32.2573 158.895 34.1587 159.184 36.308L151.186 36.68C150.98 35.564 150.608 34.5927 150.07 33.766C149.533 32.9393 148.81 32.3193 147.9 31.906C146.991 31.4513 145.916 31.224 144.676 31.224C142.816 31.224 141.411 31.596 140.46 32.34C139.51 33.084 139.034 34.076 139.034 35.316C139.034 36.184 139.241 36.9073 139.654 37.486C140.109 38.0647 140.832 38.54 141.824 38.912C142.816 39.2427 144.139 39.5527 145.792 39.842C149.264 40.3793 151.992 41.082 153.976 41.95C156.002 42.7767 157.428 43.8513 158.254 45.174C159.122 46.4553 159.556 48.0053 159.556 49.824C159.556 51.932 158.957 53.73 157.758 55.218C156.601 56.706 154.948 57.8427 152.798 58.628C150.69 59.372 148.21 59.744 145.358 59.744ZM179.204 59.744C175.939 59.744 173.19 59.2687 170.958 58.318C168.767 57.3673 167.073 56.0447 165.874 54.35C164.675 52.6553 163.993 50.7333 163.828 48.584L171.95 48.212C172.239 49.948 172.963 51.2913 174.12 52.242C175.277 53.1927 176.993 53.668 179.266 53.668C181.126 53.668 182.573 53.3787 183.606 52.8C184.681 52.18 185.218 51.2293 185.218 49.948C185.218 49.204 185.032 48.584 184.66 48.088C184.288 47.592 183.585 47.158 182.552 46.786C181.519 46.414 179.989 46.042 177.964 45.67C174.575 45.0913 171.909 44.3887 169.966 43.562C168.023 42.694 166.639 41.6193 165.812 40.338C165.027 39.0567 164.634 37.4653 164.634 35.564C164.634 32.464 165.812 29.9633 168.168 28.062C170.565 26.1193 174.058 25.148 178.646 25.148C181.622 25.148 184.123 25.644 186.148 26.636C188.173 27.5867 189.744 28.9093 190.86 30.604C192.017 32.2573 192.741 34.1587 193.03 36.308L185.032 36.68C184.825 35.564 184.453 34.5927 183.916 33.766C183.379 32.9393 182.655 32.3193 181.746 31.906C180.837 31.4513 179.762 31.224 178.522 31.224C176.662 31.224 175.257 31.596 174.306 32.34C173.355 33.084 172.88 34.076 172.88 35.316C172.88 36.184 173.087 36.9073 173.5 37.486C173.955 38.0647 174.678 38.54 175.67 38.912C176.662 39.2427 177.985 39.5527 179.638 39.842C183.11 40.3793 185.838 41.082 187.822 41.95C189.847 42.7767 191.273 43.8513 192.1 45.174C192.968 46.4553 193.402 48.0053 193.402 49.824C193.402 51.932 192.803 53.73 191.604 55.218C190.447 56.706 188.793 57.8427 186.644 58.628C184.536 59.372 182.056 59.744 179.204 59.744ZM210.508 59.744C207.16 59.744 204.494 58.6487 202.51 56.458C200.567 54.226 199.596 51.1467 199.596 47.22V25.892H207.532V45.236C207.532 48.0053 207.987 50.0513 208.896 51.374C209.847 52.6553 211.273 53.296 213.174 53.296C215.323 53.296 216.977 52.5933 218.134 51.188C219.333 49.7413 219.932 47.654 219.932 44.926V25.892H227.868V59H220.614L220.428 49.886L221.42 50.196C220.924 53.3373 219.746 55.714 217.886 57.326C216.026 58.938 213.567 59.744 210.508 59.744ZM236.59 59V25.892H244.03L244.34 35.068L243.658 34.944C244.154 31.7613 245.084 29.4673 246.448 28.062C247.853 26.6153 249.755 25.892 252.152 25.892H255.19V32.712H252.09C250.395 32.712 248.99 32.96 247.874 33.456C246.758 33.952 245.911 34.7373 245.332 35.812C244.795 36.8453 244.526 38.2093 244.526 39.904V59H236.59ZM273.799 59.744C270.492 59.744 267.619 59.0413 265.181 57.636C262.742 56.1893 260.861 54.164 259.539 51.56C258.216 48.956 257.555 45.918 257.555 42.446C257.555 38.974 258.216 35.9567 259.539 33.394C260.861 30.79 262.721 28.7647 265.119 27.318C267.557 25.8713 270.389 25.148 273.613 25.148C276.754 25.148 279.503 25.8507 281.859 27.256C284.256 28.6613 286.095 30.6867 287.377 33.332C288.658 35.9773 289.299 39.16 289.299 42.88V44.678H265.801C265.966 47.5713 266.751 49.762 268.157 51.25C269.603 52.6967 271.505 53.42 273.861 53.42C275.638 53.42 277.105 53.0273 278.263 52.242C279.461 51.4153 280.288 50.2787 280.743 48.832L288.865 49.328C287.955 52.552 286.157 55.094 283.471 56.954C280.825 58.814 277.601 59.744 273.799 59.744ZM265.801 39.346H281.115C280.949 36.6593 280.185 34.6753 278.821 33.394C277.457 32.0713 275.721 31.41 273.613 31.41C271.505 31.41 269.748 32.092 268.343 33.456C266.979 34.82 266.131 36.7833 265.801 39.346ZM296.122 59V14.98H313.172C318.339 14.98 322.369 16.22 325.262 18.7C328.155 21.18 329.602 24.6107 329.602 28.992C329.602 31.9267 328.941 34.4687 327.618 36.618C326.295 38.726 324.415 40.338 321.976 41.454C319.537 42.57 316.603 43.128 313.172 43.128H304.182V59H296.122ZM304.182 36.122H312.8C315.528 36.122 317.615 35.5227 319.062 34.324C320.55 33.1253 321.294 31.348 321.294 28.992C321.294 26.6773 320.55 24.9413 319.062 23.784C317.615 22.5853 315.528 21.986 312.8 21.986H304.182V36.122ZM344.891 59.744C341.419 59.744 338.629 58.9587 336.521 57.388C334.413 55.776 333.359 53.544 333.359 50.692C333.359 47.84 334.248 45.608 336.025 43.996C337.803 42.384 340.51 41.2267 344.147 40.524L355.121 38.354C355.121 35.998 354.584 34.2413 353.509 33.084C352.435 31.8853 350.843 31.286 348.735 31.286C346.834 31.286 345.325 31.7407 344.209 32.65C343.135 33.518 342.391 34.7787 341.977 36.432L333.917 36.06C334.579 32.5467 336.191 29.86 338.753 28C341.316 26.0987 344.643 25.148 348.735 25.148C353.447 25.148 357.002 26.3467 359.399 28.744C361.838 31.1 363.057 34.4893 363.057 38.912V50.94C363.057 51.808 363.202 52.4073 363.491 52.738C363.822 53.0687 364.297 53.234 364.917 53.234H365.971V59C365.723 59.0827 365.31 59.1447 364.731 59.186C364.194 59.2273 363.636 59.248 363.057 59.248C361.693 59.248 360.474 59.0413 359.399 58.628C358.325 58.1733 357.498 57.4087 356.919 56.334C356.341 55.218 356.051 53.7093 356.051 51.808L356.733 52.304C356.403 53.7507 355.679 55.0527 354.563 56.21C353.489 57.326 352.125 58.194 350.471 58.814C348.818 59.434 346.958 59.744 344.891 59.744ZM346.503 53.978C348.281 53.978 349.81 53.6267 351.091 52.924C352.373 52.2213 353.365 51.25 354.067 50.01C354.77 48.77 355.121 47.3027 355.121 45.608V43.748L346.565 45.484C344.788 45.856 343.507 46.414 342.721 47.158C341.977 47.8607 341.605 48.7907 341.605 49.948C341.605 51.2293 342.019 52.2213 342.845 52.924C343.713 53.6267 344.933 53.978 346.503 53.978ZM384.898 69.044C382.005 69.044 379.525 68.6513 377.458 67.866C375.391 67.0807 373.717 65.9647 372.436 64.518C371.196 63.1127 370.328 61.48 369.832 59.62L378.016 59.062C378.429 60.302 379.132 61.2733 380.124 61.976C381.157 62.6787 382.749 63.03 384.898 63.03C387.337 63.03 389.217 62.472 390.54 61.356C391.863 60.2813 392.524 58.5867 392.524 56.272V52.056C391.739 53.668 390.478 54.97 388.742 55.962C387.006 56.9127 385.063 57.388 382.914 57.388C380.186 57.388 377.747 56.7267 375.598 55.404C373.49 54.04 371.837 52.1593 370.638 49.762C369.439 47.3233 368.84 44.5127 368.84 41.33C368.84 38.1473 369.419 35.3573 370.576 32.96C371.775 30.5213 373.428 28.62 375.536 27.256C377.644 25.8507 380.062 25.148 382.79 25.148C385.187 25.148 387.254 25.6853 388.99 26.76C390.726 27.8347 391.987 29.2607 392.772 31.038V25.892H400.522V56.086C400.522 58.8967 399.861 61.2733 398.538 63.216C397.257 65.1587 395.438 66.6053 393.082 67.556C390.767 68.548 388.039 69.044 384.898 69.044ZM384.774 51.188C387.13 51.188 389.011 50.32 390.416 48.584C391.821 46.8067 392.545 44.368 392.586 41.268C392.627 39.2013 392.317 37.4447 391.656 35.998C391.036 34.51 390.127 33.3733 388.928 32.588C387.771 31.7613 386.386 31.348 384.774 31.348C382.335 31.348 380.434 32.2573 379.07 34.076C377.747 35.8533 377.086 38.2507 377.086 41.268C377.086 44.2853 377.768 46.7033 379.132 48.522C380.537 50.2993 382.418 51.188 384.774 51.188ZM422.926 59.744C419.619 59.744 416.746 59.0413 414.308 57.636C411.869 56.1893 409.988 54.164 408.666 51.56C407.343 48.956 406.682 45.918 406.682 42.446C406.682 38.974 407.343 35.9567 408.666 33.394C409.988 30.79 411.848 28.7647 414.246 27.318C416.684 25.8713 419.516 25.148 422.74 25.148C425.881 25.148 428.63 25.8507 430.986 27.256C433.383 28.6613 435.222 30.6867 436.504 33.332C437.785 35.9773 438.426 39.16 438.426 42.88V44.678H414.928C415.093 47.5713 415.878 49.762 417.284 51.25C418.73 52.6967 420.632 53.42 422.988 53.42C424.765 53.42 426.232 53.0273 427.39 52.242C428.588 51.4153 429.415 50.2787 429.87 48.832L437.992 49.328C437.082 52.552 435.284 55.094 432.598 56.954C429.952 58.814 426.728 59.744 422.926 59.744ZM414.928 39.346H430.242C430.076 36.6593 429.312 34.6753 427.948 33.394C426.584 32.0713 424.848 31.41 422.74 31.41C420.632 31.41 418.875 32.092 417.47 33.456C416.106 34.82 415.258 36.7833 414.928 39.346Z" fill="#27272A"/>
<path d="M36 0L52 9L36 18L20 9L36 0ZM16 12L32 21L16 30L0 21L16 12ZM56 12L72 21L56 30L40 21L56 12ZM36 24L56 35L36 46L16 35L36 24ZM0 39L8 35L36 51L64 35L72 39L36 60L0 39ZM0 53L8 49L36 65L64 49L72 53L36 74L0 53Z" fill="#18181B"/>
</g>
<defs>
<clipPath id="clip0_1_2">
<rect width="441" height="75" fill="white"/>
</clipPath>
</defs>
</svg>
